<svg width="20" height="20" viewBox="0 0 20 20" fill="none" xmlns="http://www.w3.org/2000/svg">
<g id="vuesax/linear/airplane">
<g id="airplane">
<path id="Vector" d="M7.52454 18.0751L9.46621 16.4417C9.75788 16.1917 10.2412 16.1917 10.5329 16.4417L12.4745 18.0751C12.9245 18.3001 13.4745 18.0751 13.6412 17.5917L14.0079 16.4834C14.0995 16.2167 14.0079 15.8251 13.8079 15.6251L11.9162 13.725C11.7745 13.5917 11.6662 13.3251 11.6662 13.1334V10.7584C11.6662 10.4084 11.9245 10.2417 12.2495 10.375L16.3412 12.1417C16.9829 12.4167 17.5079 12.075 17.5079 11.375V10.3C17.5079 9.74172 17.0912 9.10005 16.5745 8.88338L11.9162 6.87505C11.7829 6.81672 11.6662 6.64172 11.6662 6.49172V3.99172C11.6662 3.20838 11.0912 2.28338 10.3912 1.92505C10.1412 1.80005 9.84954 1.80005 9.59954 1.92505C8.89954 2.28338 8.32454 3.21672 8.32454 4.00005V6.50005C8.32454 6.65005 8.20788 6.82505 8.07454 6.88338L3.42454 8.89172C2.90788 9.10005 2.49121 9.74172 2.49121 10.3V11.375C2.49121 12.075 3.01621 12.4167 3.65788 12.1417L7.74954 10.375C8.06621 10.2334 8.33288 10.4084 8.33288 10.7584V13.1334C8.33288 13.3251 8.22454 13.5917 8.09121 13.725L6.19954 15.6251C5.99954 15.8251 5.90788 16.2084 5.99954 16.4834L6.36621 17.5917C6.51621 18.0751 7.06621 18.3084 7.52454 18.0751Z" stroke="#6C6C6C" stroke-width="1.5" stroke-linecap="round" stroke-linejoin="round"/>
</g>
</g>
</svg>
