<svg width="20" height="20" viewBox="0 0 20 20" fill="none" xmlns="http://www.w3.org/2000/svg">
<g id="vuesax/linear/box-tick">
<g id="box-tick">
<g id="Group">
<path id="Vector" d="M19.1666 14.925C19.1833 15.55 19.0166 16.1416 18.7166 16.65C18.55 16.95 18.325 17.225 18.075 17.45C17.5 17.9833 16.7416 18.3083 15.9 18.3333C14.6833 18.3583 13.6083 17.7333 13.0166 16.775C12.7 16.2833 12.5083 15.6917 12.5 15.0667C12.475 14.0167 12.9416 13.0666 13.6916 12.4416C14.2583 11.975 14.975 11.6833 15.7583 11.6666C17.6 11.625 19.125 13.0833 19.1666 14.925Z" stroke="#6C6C6C" stroke-width="1.5" stroke-miterlimit="10" stroke-linecap="round" stroke-linejoin="round"/>
<path id="Vector_2" d="M14.5332 15.025L15.3749 15.825L17.1165 14.1416" stroke="#6C6C6C" stroke-width="1.5" stroke-linecap="round" stroke-linejoin="round"/>
</g>
<g id="Group_2">
<g id="Group_3">
<path id="Vector_3" d="M2.6416 6.19995L9.99992 10.4583L17.3082 6.22492" stroke="#6C6C6C" stroke-width="1.5" stroke-linecap="round" stroke-linejoin="round"/>
<path id="Vector_4" d="M10 18.0083V10.45" stroke="#6C6C6C" stroke-width="1.5" stroke-linecap="round" stroke-linejoin="round"/>
</g>
<path id="Vector_5" d="M18.0079 7.64163V12.3583C18.0079 12.4 18.0079 12.4333 17.9995 12.475C17.4162 11.9666 16.6662 11.6666 15.8329 11.6666C15.0495 11.6666 14.3245 11.9416 13.7495 12.4C12.9829 13.0083 12.4995 13.95 12.4995 15C12.4995 15.625 12.6745 16.2166 12.9829 16.7166C13.0579 16.85 13.1495 16.975 13.2495 17.0916L11.7245 17.9333C10.7745 18.4667 9.22453 18.4667 8.27453 17.9333L3.82453 15.4666C2.8162 14.9083 1.99121 13.5083 1.99121 12.3583V7.64163C1.99121 6.49163 2.8162 5.09164 3.82453 4.53331L8.27453 2.06663C9.22453 1.53329 10.7745 1.53329 11.7245 2.06663L16.1745 4.53331C17.1829 5.09164 18.0079 6.49163 18.0079 7.64163Z" stroke="#6C6C6C" stroke-width="1.5" stroke-linecap="round" stroke-linejoin="round"/>
</g>
</g>
</g>
</svg>
