<svg width="101" height="100" viewBox="0 0 101 100" fill="none" xmlns="http://www.w3.org/2000/svg">
<rect x="0.5" width="100" height="100" rx="50" fill="#FFF0E8"/>
<path d="M65.1667 57.88C65.1934 58.88 64.9267 59.8267 64.4467 60.64C64.1801 61.12 63.8201 61.56 63.4201 61.92C62.5001 62.7733 61.2867 63.2933 59.94 63.3333C57.9934 63.3733 56.2734 62.3734 55.3267 60.84C54.8201 60.0534 54.5134 59.1067 54.5001 58.1067C54.4601 56.4267 55.2067 54.9067 56.4067 53.9067C57.3134 53.16 58.4601 52.6933 59.7134 52.6667C62.6601 52.6 65.1001 54.9333 65.1667 57.88Z" stroke="#FB7C0E" stroke-width="2.5" stroke-miterlimit="10" stroke-linecap="round" stroke-linejoin="round"/>
<path d="M57.7534 58.04L59.1001 59.3199L61.8868 56.6266" stroke="#FB7C0E" stroke-width="2.5" stroke-linecap="round" stroke-linejoin="round"/>
<path d="M38.7268 43.9199L50.5001 50.7332L62.1934 43.9599" stroke="#FB7C0E" stroke-width="2.5" stroke-linecap="round" stroke-linejoin="round"/>
<path d="M50.5 62.8132V50.7198" stroke="#FB7C0E" stroke-width="2.5" stroke-linecap="round" stroke-linejoin="round"/>
<path d="M63.3134 46.2266V53.7733C63.3134 53.84 63.3134 53.8933 63.3001 53.9599C62.3668 53.1466 61.1667 52.6667 59.8334 52.6667C58.5801 52.6667 57.4201 53.1067 56.5001 53.84C55.2734 54.8133 54.5001 56.32 54.5001 58C54.5001 59 54.7801 59.9466 55.2734 60.7466C55.3934 60.96 55.5401 61.16 55.7001 61.3467L53.2601 62.6933C51.7401 63.5467 49.2601 63.5467 47.7401 62.6933L40.6201 58.7466C39.0067 57.8533 37.6868 55.6133 37.6868 53.7733V46.2266C37.6868 44.3866 39.0067 42.1467 40.6201 41.2533L47.7401 37.3066C49.2601 36.4533 51.7401 36.4533 53.2601 37.3066L60.3801 41.2533C61.9934 42.1467 63.3134 44.3866 63.3134 46.2266Z" stroke="#FB7C0E" stroke-width="2.5" stroke-linecap="round" stroke-linejoin="round"/>
</svg>
