<svg width="22" height="22" viewBox="0 0 22 22" fill="none" xmlns="http://www.w3.org/2000/svg">
<path fill-rule="evenodd" clip-rule="evenodd" d="M3.30005 5.4999C3.30005 5.20816 3.41594 4.92838 3.62223 4.72209C3.82852 4.5158 4.10831 4.3999 4.40005 4.3999H17.6C17.8918 4.3999 18.1716 4.5158 18.3779 4.72209C18.5842 4.92838 18.7 5.20816 18.7 5.4999C18.7 5.79164 18.5842 6.07143 18.3779 6.27772C18.1716 6.48401 17.8918 6.5999 17.6 6.5999H4.40005C4.10831 6.5999 3.82852 6.48401 3.62223 6.27772C3.41594 6.07143 3.30005 5.79164 3.30005 5.4999ZM3.30005 10.9999C3.30005 10.7082 3.41594 10.4284 3.62223 10.2221C3.82852 10.0158 4.10831 9.8999 4.40005 9.8999H17.6C17.8918 9.8999 18.1716 10.0158 18.3779 10.2221C18.5842 10.4284 18.7 10.7082 18.7 10.9999C18.7 11.2916 18.5842 11.5714 18.3779 11.7777C18.1716 11.984 17.8918 12.0999 17.6 12.0999H4.40005C4.10831 12.0999 3.82852 11.984 3.62223 11.7777C3.41594 11.5714 3.30005 11.2916 3.30005 10.9999ZM9.90005 16.4999C9.90005 16.2082 10.0159 15.9284 10.2222 15.7221C10.4285 15.5158 10.7083 15.3999 11 15.3999H17.6C17.8918 15.3999 18.1716 15.5158 18.3779 15.7221C18.5842 15.9284 18.7 16.2082 18.7 16.4999C18.7 16.7916 18.5842 17.0714 18.3779 17.2777C18.1716 17.484 17.8918 17.5999 17.6 17.5999H11C10.7083 17.5999 10.4285 17.484 10.2222 17.2777C10.0159 17.0714 9.90005 16.7916 9.90005 16.4999Z" fill="white"/>
</svg>
