<svg width="82" height="54" viewBox="0 0 82 54" fill="none" xmlns="http://www.w3.org/2000/svg">
<g id="Frame 59">
<g id="cargo">
<path id="Vector" d="M77.1306 30.4997C75.6078 32.013 73.7243 32.7696 71.4801 32.7696C69.236 32.7696 67.3525 32.013 65.8297 30.4997C64.3068 28.9865 63.5454 27.1148 63.5454 24.8848C63.5454 22.6747 64.3068 20.813 65.8297 19.2997C67.3725 17.7666 69.256 17 71.4801 17C73.7043 17 75.5878 17.7666 77.1306 19.2997C78.6735 20.8329 79.4449 22.6946 79.4449 24.8848C79.4449 27.0949 78.6735 28.9666 77.1306 30.4997ZM68.5647 27.8416C69.3462 28.6181 70.318 29.0064 71.4801 29.0064C72.6423 29.0064 73.6141 28.6181 74.3955 27.8416C75.177 27.0651 75.5677 26.0795 75.5677 24.8848C75.5677 23.6901 75.177 22.7045 74.3955 21.928C73.6141 21.1515 72.6423 20.7632 71.4801 20.7632C70.318 20.7632 69.3462 21.1515 68.5647 21.928C67.8033 22.7244 67.4226 23.71 67.4226 24.8848C67.4226 26.0595 67.8033 27.0451 68.5647 27.8416Z" fill="#222529"/>
<path id="Vector_2" d="M57.0248 19.2699V17.4181H60.8118V31.6347C60.8118 33.9244 60.0404 35.6866 58.4975 36.921C56.9747 38.1356 55.1312 38.7429 52.9672 38.7429C49.5609 38.7429 47.1865 37.5283 45.844 35.0992L49.1501 33.2176C49.8915 34.6114 51.2039 35.3082 53.0874 35.3082C54.3097 35.3082 55.2715 34.9897 55.9728 34.3525C56.6741 33.7154 57.0248 32.8094 57.0248 31.6347V30.0219C55.8826 31.5351 54.2797 32.2917 52.2158 32.2917C50.0919 32.2917 48.3086 31.555 46.8659 30.0816C45.4433 28.5683 44.7319 26.7564 44.7319 24.6459C44.7319 22.5353 45.4533 20.7333 46.896 19.24C48.3386 17.7467 50.1119 17 52.2158 17C54.2797 17 55.8826 17.7566 57.0248 19.2699ZM55.8225 27.6027C56.624 26.8261 57.0248 25.8405 57.0248 24.6459C57.0248 23.4512 56.624 22.4855 55.8225 21.7488C55.0411 20.9723 54.0392 20.584 52.8169 20.584C51.6147 20.584 50.6028 20.9723 49.7813 21.7488C48.9999 22.4855 48.6091 23.4512 48.6091 24.6459C48.6091 25.8405 48.9999 26.8261 49.7813 27.6027C50.5828 28.3593 51.5947 28.7376 52.8169 28.7376C54.0392 28.7376 55.0411 28.3593 55.8225 27.6027Z" fill="#222529"/>
<path id="Vector_3" d="M39.2351 17.4183V19.9868C39.5757 19.051 40.1568 18.3442 40.9783 17.8663C41.7999 17.3685 42.7416 17.1196 43.8036 17.1196V21.4204C42.6214 21.2611 41.5594 21.5001 40.6177 22.1372C39.696 22.7545 39.2351 23.7799 39.2351 25.2135V32.3516H35.3579V17.4183H39.2351Z" fill="#222529"/>
<path id="Vector_4" d="M27.9639 19.1803V17.4181H31.8411V32.3514H27.9639V30.5893C26.8017 32.0428 25.1687 32.7696 23.0648 32.7696C21.0611 32.7696 19.3379 32.013 17.8952 30.4997C16.4726 28.9666 15.7612 27.0949 15.7612 24.8848C15.7612 22.6946 16.4726 20.8329 17.8952 19.2997C19.3379 17.7666 21.0611 17 23.0648 17C25.1687 17 26.8017 17.7268 27.9639 19.1803ZM20.8106 27.9312C21.5921 28.7077 22.5839 29.096 23.7861 29.096C24.9884 29.096 25.9802 28.7077 26.7617 27.9312C27.5631 27.1347 27.9639 26.1193 27.9639 24.8848C27.9639 23.6503 27.5631 22.6448 26.7617 21.8683C25.9802 21.0718 24.9884 20.6736 23.7861 20.6736C22.5839 20.6736 21.5921 21.0718 20.8106 21.8683C20.0292 22.6448 19.6384 23.6503 19.6384 24.8848C19.6384 26.1193 20.0292 27.1347 20.8106 27.9312Z" fill="#222529"/>
<path id="Vector_5" d="M7.93473 32.7696C5.67053 32.7696 3.77701 32.013 2.25418 30.4997C0.751395 28.9865 0 27.1148 0 24.8848C0 22.6547 0.751395 20.7831 2.25418 19.2699C3.77701 17.7566 5.67053 17 7.93473 17C9.39745 17 10.7299 17.3484 11.9322 18.0453C13.1344 18.7422 14.0461 19.678 14.6672 20.8528L11.331 22.7941C11.0305 22.1769 10.5696 21.6891 9.94847 21.3307C9.34735 20.9723 8.66609 20.7931 7.90468 20.7931C6.74252 20.7931 5.78073 21.1813 5.01932 21.9579C4.25791 22.7145 3.8772 23.6901 3.8772 24.8848C3.8772 26.0396 4.25791 27.0153 5.01932 27.8117C5.78073 28.5683 6.74252 28.9467 7.90468 28.9467C8.68613 28.9467 9.37741 28.7774 9.97853 28.4389C10.5997 28.0805 11.0605 27.5927 11.3611 26.9755L14.7273 28.8869C14.0661 30.0816 13.1244 31.0274 11.9021 31.7242C10.6999 32.4211 9.37741 32.7696 7.93473 32.7696Z" fill="#222529"/>
</g>
</g>
</svg>
