<svg xmlns="http://www.w3.org/2000/svg" width="95" height="26" viewBox="0 0 95 26" fill="none">
  <path d="M92.2325 16.1429C90.4115 17.9524 88.1593 18.8571 85.4757 18.8571C82.7922 18.8571 80.5399 17.9524 78.7189 16.1429C76.8979 14.3333 75.9874 12.0952 75.9874 9.42857C75.9874 6.78571 76.8979 4.55952 78.7189 2.75C80.5638 0.916666 82.8161 0 85.4757 0C88.1353 0 90.3876 0.916666 92.2325 2.75C94.0775 4.58333 94.9999 6.80952 94.9999 9.42857C94.9999 12.0714 94.0775 14.3095 92.2325 16.1429ZM81.9895 12.9643C82.9239 13.8929 84.086 14.3571 85.4757 14.3571C86.8654 14.3571 88.0275 13.8929 88.9619 12.9643C89.8964 12.0357 90.3636 10.8571 90.3636 9.42857C90.3636 8 89.8964 6.82143 88.9619 5.89286C88.0275 4.96428 86.8654 4.5 85.4757 4.5C84.086 4.5 82.9239 4.96428 81.9895 5.89286C81.079 6.84524 80.6237 8.02381 80.6237 9.42857C80.6237 10.8333 81.079 12.0119 81.9895 12.9643Z" fill="white"/>
  <path d="M68.1892 2.71428V0.5H72.7177V17.5C72.7177 20.2381 71.7952 22.3452 69.9502 23.8214C68.1293 25.2738 65.9249 26 63.3372 26C59.2639 26 56.4246 24.5476 54.8193 21.6429L58.7728 19.3929C59.6593 21.0595 61.2287 21.8929 63.481 21.8929C64.9425 21.8929 66.0926 21.5119 66.9312 20.75C67.7699 19.9881 68.1892 18.9048 68.1892 17.5V15.5714C66.8234 17.381 64.9066 18.2857 62.4387 18.2857C59.8989 18.2857 57.7664 17.4048 56.0413 15.6429C54.3401 13.8333 53.4895 11.6667 53.4895 9.14286C53.4895 6.61905 54.3521 4.46428 56.0772 2.67857C57.8024 0.892856 59.9228 0 62.4387 0C64.9066 0 66.8234 0.904761 68.1892 2.71428ZM66.7515 12.6786C67.71 11.75 68.1892 10.5714 68.1892 9.14286C68.1892 7.71428 67.71 6.55952 66.7515 5.67857C65.8171 4.75 64.6191 4.28571 63.1575 4.28571C61.7199 4.28571 60.5099 4.75 59.5275 5.67857C58.5931 6.55952 58.1258 7.71428 58.1258 9.14286C58.1258 10.5714 58.5931 11.75 59.5275 12.6786C60.4859 13.5833 61.6959 14.0357 63.1575 14.0357C64.6191 14.0357 65.8171 13.5833 66.7515 12.6786Z" fill="white"/>
  <path d="M46.9164 0.499967V3.57139C47.3237 2.45235 48.0185 1.60711 49.0009 1.03568C49.9833 0.440441 51.1094 0.142822 52.3793 0.142822V5.28568C50.9656 5.0952 49.6957 5.38092 48.5696 6.14282C47.4674 6.88092 46.9164 8.10711 46.9164 9.82139V18.3571H42.28V0.499967H46.9164Z" fill="white"/>
  <path d="M33.4395 2.60714V0.5H38.0758V18.3571H33.4395V16.25C32.0498 17.9881 30.097 18.8571 27.5812 18.8571C25.1852 18.8571 23.1246 17.9524 21.3994 16.1429C19.6982 14.3095 18.8477 12.0714 18.8477 9.42857C18.8477 6.80952 19.6982 4.58333 21.3994 2.75C23.1246 0.916666 25.1852 0 27.5812 0C30.097 0 32.0498 0.869046 33.4395 2.60714ZM24.8857 13.0714C25.8201 14 27.0061 14.4643 28.4438 14.4643C29.8814 14.4643 31.0674 14 32.0019 13.0714C32.9603 12.119 33.4395 10.9048 33.4395 9.42857C33.4395 7.95238 32.9603 6.75 32.0019 5.82143C31.0674 4.86905 29.8814 4.39286 28.4438 4.39286C27.0061 4.39286 25.8201 4.86905 24.8857 5.82143C23.9512 6.75 23.484 7.95238 23.484 9.42857C23.484 10.9048 23.9512 12.119 24.8857 13.0714Z" fill="white"/>
  <path d="M9.48829 18.8571C6.78077 18.8571 4.51652 17.9524 2.69554 16.1429C0.898512 14.3333 0 12.0952 0 9.42857C0 6.7619 0.898512 4.52381 2.69554 2.71428C4.51652 0.904761 6.78077 0 9.48829 0C11.2374 0 12.8308 0.416666 14.2684 1.25C15.706 2.08333 16.7962 3.20238 17.539 4.60714L13.5496 6.92857C13.1902 6.19048 12.6391 5.60714 11.8963 5.17857C11.1775 4.75 10.3628 4.53571 9.45235 4.53571C8.06265 4.53571 6.91255 5 6.00206 5.92857C5.09157 6.83333 4.63632 8 4.63632 9.42857C4.63632 10.8095 5.09157 11.9762 6.00206 12.9286C6.91255 13.8333 8.06265 14.2857 9.45235 14.2857C10.3868 14.2857 11.2134 14.0833 11.9322 13.6786C12.675 13.25 13.2261 12.6667 13.5855 11.9286L17.6108 14.2143C16.8201 15.6429 15.694 16.7738 14.2324 17.6071C12.7948 18.4405 11.2134 18.8571 9.48829 18.8571Z" fill="white"/>
</svg>