<svg width="101" height="100" viewBox="0 0 101 100" fill="none" xmlns="http://www.w3.org/2000/svg">
<rect x="0.5" width="100" height="100" rx="50" fill="#FFF0E8"/>
<path d="M50.5 50C54.1819 50 57.1667 47.0152 57.1667 43.3333C57.1667 39.6514 54.1819 36.6666 50.5 36.6666C46.8181 36.6666 43.8334 39.6514 43.8334 43.3333C43.8334 47.0152 46.8181 50 50.5 50Z" stroke="#FB7C0E" stroke-width="2.5" stroke-linecap="round" stroke-linejoin="round"/>
<path d="M39.0466 63.3333C39.0466 58.1733 44.18 54 50.5 54C51.78 54 53.02 54.1733 54.18 54.4933" stroke="#FB7C0E" stroke-width="2.5" stroke-linecap="round" stroke-linejoin="round"/>
<path d="M63.8333 58C63.8333 59 63.5533 59.9466 63.06 60.7466C62.78 61.2266 62.42 61.6533 62.0066 62C61.0733 62.84 59.8466 63.3333 58.5 63.3333C56.5533 63.3333 54.8599 62.2933 53.9399 60.7466C53.4466 59.9466 53.1666 59 53.1666 58C53.1666 56.32 53.94 54.8133 55.1666 53.84C56.0866 53.1066 57.2466 52.6666 58.5 52.6666C61.4466 52.6666 63.8333 55.0533 63.8333 58Z" stroke="#FB7C0E" stroke-width="2.5" stroke-miterlimit="10" stroke-linecap="round" stroke-linejoin="round"/>
<path d="M56.4199 58L57.7399 59.32L60.5799 56.6934" stroke="#FB7C0E" stroke-width="2.5" stroke-linecap="round" stroke-linejoin="round"/>
</svg>
