<svg width="20" height="20" viewBox="0 0 20 20" fill="none" xmlns="http://www.w3.org/2000/svg">
<g id="vuesax/linear/copy">
<g id="copy">
<path id="Vector" d="M13.3337 10.75V14.25C13.3337 17.1667 12.167 18.3334 9.25033 18.3334H5.75033C2.83366 18.3334 1.66699 17.1667 1.66699 14.25V10.75C1.66699 7.83335 2.83366 6.66669 5.75033 6.66669H9.25033C12.167 6.66669 13.3337 7.83335 13.3337 10.75Z" stroke="#6C6C6C" stroke-width="1.5" stroke-linecap="round" stroke-linejoin="round"/>
<path id="Vector_2" d="M18.3337 5.75002V9.25002C18.3337 12.1667 17.167 13.3334 14.2503 13.3334H13.3337V10.75C13.3337 7.83335 12.167 6.66669 9.25033 6.66669H6.66699V5.75002C6.66699 2.83335 7.83366 1.66669 10.7503 1.66669H14.2503C17.167 1.66669 18.3337 2.83335 18.3337 5.75002Z" stroke="#6C6C6C" stroke-width="1.5" stroke-linecap="round" stroke-linejoin="round"/>
</g>
</g>
</svg>
