<svg width="32" height="32" viewBox="0 0 32 32" fill="none" xmlns="http://www.w3.org/2000/svg">
<g id="vuesax/linear/archive">
<path id="Vector" d="M11.9998 29.3333H19.9998C26.6665 29.3333 29.3332 26.6666 29.3332 20V12C29.3332 5.33329 26.6665 2.66663 19.9998 2.66663H11.9998C5.33317 2.66663 2.6665 5.33329 2.6665 12V20C2.6665 26.6666 5.33317 29.3333 11.9998 29.3333Z" stroke="#6C6C6C" stroke-width="2" stroke-linecap="round" stroke-linejoin="round"/>
<g id="Group">
<path id="Vector_2" d="M24 10.3333V19.3333C24 17.8666 22.8 16.6666 21.3333 16.6666H10.6667C9.2 16.6666 8 17.8666 8 19.3333V10.3333C8 8.86663 9.2 7.66663 10.6667 7.66663H21.3333C22.8 7.66663 24 8.86663 24 10.3333Z" stroke="#6C6C6C" stroke-width="2" stroke-linecap="round" stroke-linejoin="round"/>
<path id="Vector_3" d="M25.3333 21H24" stroke="#6C6C6C" stroke-width="2" stroke-linecap="round" stroke-linejoin="round"/>
<path id="Vector_4" d="M7.99984 21H6.6665" stroke="#6C6C6C" stroke-width="2" stroke-linecap="round" stroke-linejoin="round"/>
</g>
<path id="Vector_5" d="M24 18.6667V14.6667C24 13.2 22.8 12 21.3333 12H10.6667C9.2 12 8 13.2 8 14.6667V18.6667" stroke="#6C6C6C" stroke-width="2" stroke-linecap="round" stroke-linejoin="round"/>
<path id="Vector_6" d="M24 19.3333V21H19.3333C19.3333 22.84 17.84 24.3333 16 24.3333C14.16 24.3333 12.6667 22.84 12.6667 21H8V19.3333C8 17.8666 9.2 16.6666 10.6667 16.6666H21.3333C22.8 16.6666 24 17.8666 24 19.3333Z" stroke="#6C6C6C" stroke-width="2" stroke-linecap="round" stroke-linejoin="round"/>
</g>
</svg>
