<svg width="100" height="100" viewBox="0 0 100 100" fill="none" xmlns="http://www.w3.org/2000/svg">
<rect width="100" height="100" rx="50" fill="#FFF0E8"/>
<path d="M54 36.6666V50C54 51.4666 52.8 52.6666 51.3333 52.6666H36.6666V44.16C37.64 45.32 39.1333 46.04 40.7867 46C42.1333 45.9733 43.3466 45.4533 44.2533 44.5866C44.6666 44.24 45.0133 43.7999 45.28 43.3199C45.76 42.5066 46.0266 41.5466 46 40.5466C45.96 38.9866 45.2666 37.6133 44.1866 36.6666H54Z" stroke="#FB7C0E" stroke-width="2.5" stroke-linecap="round" stroke-linejoin="round"/>
<path d="M63.3333 52.6666V56.6666C63.3333 58.88 61.5466 60.6666 59.3333 60.6666H58C58 59.2 56.8 58 55.3333 58C53.8666 58 52.6666 59.2 52.6666 60.6666H47.3333C47.3333 59.2 46.1333 58 44.6666 58C43.2 58 42 59.2 42 60.6666H40.6666C38.4533 60.6666 36.6666 58.88 36.6666 56.6666V52.6666H51.3333C52.8 52.6666 54 51.4666 54 50V40.6666H56.4533C57.4133 40.6666 58.2933 41.1866 58.7733 42.0133L61.0533 46H59.3333C58.6 46 58 46.6 58 47.3333V51.3333C58 52.0666 58.6 52.6666 59.3333 52.6666H63.3333Z" stroke="#FB7C0E" stroke-width="2.5" stroke-linecap="round" stroke-linejoin="round"/>
<path d="M44.6667 63.3333C46.1394 63.3333 47.3333 62.1394 47.3333 60.6667C47.3333 59.1939 46.1394 58 44.6667 58C43.1939 58 42 59.1939 42 60.6667C42 62.1394 43.1939 63.3333 44.6667 63.3333Z" stroke="#FB7C0E" stroke-width="2.5" stroke-linecap="round" stroke-linejoin="round"/>
<path d="M55.3333 63.3333C56.8061 63.3333 58 62.1394 58 60.6667C58 59.1939 56.8061 58 55.3333 58C53.8605 58 52.6666 59.1939 52.6666 60.6667C52.6666 62.1394 53.8605 63.3333 55.3333 63.3333Z" stroke="#FB7C0E" stroke-width="2.5" stroke-linecap="round" stroke-linejoin="round"/>
<path d="M63.3333 50V52.6667H59.3333C58.6 52.6667 58 52.0667 58 51.3333V47.3333C58 46.6 58.6 46 59.3333 46H61.0533L63.3333 50Z" stroke="#FB7C0E" stroke-width="2.5" stroke-linecap="round" stroke-linejoin="round"/>
<path d="M46 40.6667C46 42.2667 45.2934 43.6934 44.1867 44.6667C43.2401 45.4934 42.0134 46 40.6667 46C37.72 46 35.3334 43.6134 35.3334 40.6667C35.3334 38.9867 36.1067 37.48 37.3334 36.5067C38.2534 35.7734 39.4134 35.3334 40.6667 35.3334C43.6134 35.3334 46 37.72 46 40.6667Z" stroke="#FB7C0E" stroke-width="2.5" stroke-miterlimit="10" stroke-linecap="round" stroke-linejoin="round"/>
<path d="M41 39V41L39.3334 42" stroke="#FB7C0E" stroke-width="2.5" stroke-miterlimit="10" stroke-linecap="round" stroke-linejoin="round"/>
</svg>
