<svg width="16" height="16" viewBox="0 0 16 16" fill="none" xmlns="http://www.w3.org/2000/svg">
<g id="vuesax/linear/user-edit">
<g id="user-edit">
<path id="Vector" d="M8.00033 7.99998C9.84127 7.99998 11.3337 6.5076 11.3337 4.66665C11.3337 2.8257 9.84127 1.33331 8.00033 1.33331C6.15938 1.33331 4.66699 2.8257 4.66699 4.66665C4.66699 6.5076 6.15938 7.99998 8.00033 7.99998Z" stroke="#222529" stroke-linecap="round" stroke-linejoin="round"/>
<g id="Group">
<path id="Vector_2" d="M12.807 10.4933L10.447 12.8534C10.3537 12.9467 10.267 13.12 10.247 13.2467L10.1203 14.1467C10.0737 14.4733 10.3004 14.7 10.627 14.6533L11.527 14.5267C11.6537 14.5067 11.8337 14.42 11.9204 14.3267L14.2803 11.9667C14.687 11.56 14.8803 11.0867 14.2803 10.4867C13.687 9.89334 13.2137 10.0867 12.807 10.4933Z" stroke="#222529" stroke-miterlimit="10" stroke-linecap="round" stroke-linejoin="round"/>
<path id="Vector_3" d="M12.4668 10.8333C12.6668 11.5533 13.2268 12.1133 13.9468 12.3133" stroke="#222529" stroke-miterlimit="10" stroke-linecap="round" stroke-linejoin="round"/>
</g>
<path id="Vector_4" d="M2.27344 14.6667C2.27344 12.0867 4.84012 10 8.00012 10C8.69346 10 9.3601 10.1 9.9801 10.2867" stroke="#222529" stroke-linecap="round" stroke-linejoin="round"/>
</g>
</g>
</svg>
